<mxfile host="app.diagrams.net" modified="2024-07-21T09:36:34.142Z" agent="Mozilla/5.0 (Windows NT 10.0; Win64; x64; rv:128.0) Gecko/20100101 Firefox/128.0" etag="LbOKKjqCKrwUeKkGRbwO" version="24.7.2" type="device">
  <diagram name="Seite-1" id="L46DHCWUFK2bjf8sg3aQ">
    <mxGraphModel dx="2563" dy="1244" grid="1" gridSize="10" guides="1" tooltips="1" connect="1" arrows="1" fold="1" page="0" pageScale="1" pageWidth="827" pageHeight="1169" background="#FFFFFF" math="0" shadow="1">
      <root>
        <mxCell id="0" />
        <mxCell id="1" parent="0" />
        <mxCell id="7dWYydxdKpR4tuT_QlTn-157" value="" style="group" parent="1" vertex="1" connectable="0">
          <mxGeometry x="1059" y="1210" width="616.56" height="257.86000000000007" as="geometry" />
        </mxCell>
        <mxCell id="7dWYydxdKpR4tuT_QlTn-2" value="" style="rounded=0;whiteSpace=wrap;html=1;" parent="7dWYydxdKpR4tuT_QlTn-157" vertex="1">
          <mxGeometry width="611" height="240" as="geometry" />
        </mxCell>
        <mxCell id="7dWYydxdKpR4tuT_QlTn-16" value="" style="endArrow=none;html=1;rounded=0;exitX=0.979;exitY=1;exitDx=0;exitDy=0;exitPerimeter=0;" parent="7dWYydxdKpR4tuT_QlTn-157" edge="1">
          <mxGeometry width="50" height="50" relative="1" as="geometry">
            <mxPoint x="585.2729548550956" y="240" as="sourcePoint" />
            <mxPoint x="610.9992385849898" y="218.82352941176487" as="targetPoint" />
          </mxGeometry>
        </mxCell>
        <mxCell id="7dWYydxdKpR4tuT_QlTn-3" value="&lt;b&gt;genAI-Company&lt;/b&gt;" style="text;html=1;align=center;verticalAlign=middle;whiteSpace=wrap;rounded=0;" parent="7dWYydxdKpR4tuT_QlTn-157" vertex="1">
          <mxGeometry x="-9" y="200.0035294117647" width="160.80506276584708" height="51.1764705882353" as="geometry" />
        </mxCell>
        <mxCell id="7dWYydxdKpR4tuT_QlTn-159" value="" style="rounded=1;whiteSpace=wrap;html=1;arcSize=50;rotation=-90;direction=south;" parent="7dWYydxdKpR4tuT_QlTn-157" vertex="1">
          <mxGeometry x="297.53000000000003" y="220.00000000000009" width="15.56" height="37.86" as="geometry" />
        </mxCell>
        <mxCell id="7dWYydxdKpR4tuT_QlTn-160" value="" style="ellipse;whiteSpace=wrap;html=1;aspect=fixed;fillColor=#000000;direction=west;" parent="7dWYydxdKpR4tuT_QlTn-157" vertex="1">
          <mxGeometry x="289.53" y="233.93000000000006" width="10" height="10" as="geometry" />
        </mxCell>
        <mxCell id="7dWYydxdKpR4tuT_QlTn-161" value="" style="ellipse;whiteSpace=wrap;html=1;aspect=fixed;fillColor=#000000;direction=west;" parent="7dWYydxdKpR4tuT_QlTn-157" vertex="1">
          <mxGeometry x="311.46000000000004" y="233.93000000000006" width="10" height="10" as="geometry" />
        </mxCell>
        <mxCell id="7dWYydxdKpR4tuT_QlTn-162" value="" style="group" parent="7dWYydxdKpR4tuT_QlTn-157" vertex="1" connectable="0">
          <mxGeometry x="601" y="110" width="15.559999999999945" height="37.860000000000014" as="geometry" />
        </mxCell>
        <mxCell id="7dWYydxdKpR4tuT_QlTn-163" value="" style="rounded=1;whiteSpace=wrap;html=1;arcSize=50;rotation=-90;" parent="7dWYydxdKpR4tuT_QlTn-162" vertex="1">
          <mxGeometry x="-11.149999999999977" y="11.150000000000091" width="37.86" height="15.56" as="geometry" />
        </mxCell>
        <mxCell id="7dWYydxdKpR4tuT_QlTn-164" value="" style="ellipse;whiteSpace=wrap;html=1;aspect=fixed;fillColor=#000000;" parent="7dWYydxdKpR4tuT_QlTn-162" vertex="1">
          <mxGeometry x="3.019999999999982" y="3.6100000000001273" width="10" height="10" as="geometry" />
        </mxCell>
        <mxCell id="7dWYydxdKpR4tuT_QlTn-165" value="" style="ellipse;whiteSpace=wrap;html=1;aspect=fixed;fillColor=#000000;" parent="7dWYydxdKpR4tuT_QlTn-162" vertex="1">
          <mxGeometry x="3.019999999999982" y="23.610000000000127" width="10" height="10" as="geometry" />
        </mxCell>
        <mxCell id="7dWYydxdKpR4tuT_QlTn-218" value="" style="group;direction=south;" parent="7dWYydxdKpR4tuT_QlTn-157" vertex="1" connectable="0">
          <mxGeometry x="151.80999999999995" y="220" width="37.860000000000014" height="23.930000000000064" as="geometry" />
        </mxCell>
        <mxCell id="7dWYydxdKpR4tuT_QlTn-219" value="" style="rounded=1;whiteSpace=wrap;html=1;arcSize=50;rotation=-90;direction=south;" parent="7dWYydxdKpR4tuT_QlTn-218" vertex="1">
          <mxGeometry x="2.1316282072803006e-14" y="9.237055564881302e-14" width="15.56" height="37.86" as="geometry" />
        </mxCell>
        <mxCell id="7dWYydxdKpR4tuT_QlTn-220" value="" style="ellipse;whiteSpace=wrap;html=1;aspect=fixed;fillColor=#000000;direction=west;" parent="7dWYydxdKpR4tuT_QlTn-218" vertex="1">
          <mxGeometry x="-8" y="13.930000000000064" width="10" height="10" as="geometry" />
        </mxCell>
        <mxCell id="7dWYydxdKpR4tuT_QlTn-221" value="" style="ellipse;whiteSpace=wrap;html=1;aspect=fixed;fillColor=#000000;direction=west;" parent="7dWYydxdKpR4tuT_QlTn-157" vertex="1">
          <mxGeometry x="165.74" y="233.93000000000006" width="10" height="10" as="geometry" />
        </mxCell>
        <mxCell id="7dWYydxdKpR4tuT_QlTn-273" value="" style="group;direction=south;" parent="7dWYydxdKpR4tuT_QlTn-157" vertex="1" connectable="0">
          <mxGeometry x="471" y="-20" width="37.860000000000014" height="23.930000000000064" as="geometry" />
        </mxCell>
        <mxCell id="7dWYydxdKpR4tuT_QlTn-274" value="" style="rounded=1;whiteSpace=wrap;html=1;arcSize=50;rotation=-90;direction=south;" parent="7dWYydxdKpR4tuT_QlTn-273" vertex="1">
          <mxGeometry x="2.1316282072803006e-14" y="9.237055564881302e-14" width="15.56" height="37.86" as="geometry" />
        </mxCell>
        <mxCell id="7dWYydxdKpR4tuT_QlTn-275" value="" style="ellipse;whiteSpace=wrap;html=1;aspect=fixed;fillColor=#000000;direction=west;" parent="7dWYydxdKpR4tuT_QlTn-273" vertex="1">
          <mxGeometry x="-8" y="13.930000000000064" width="10" height="10" as="geometry" />
        </mxCell>
        <mxCell id="7dWYydxdKpR4tuT_QlTn-276" value="" style="ellipse;whiteSpace=wrap;html=1;aspect=fixed;fillColor=#000000;direction=west;" parent="7dWYydxdKpR4tuT_QlTn-157" vertex="1">
          <mxGeometry x="484.93000000000006" y="-6.069999999999936" width="10" height="10" as="geometry" />
        </mxCell>
        <mxCell id="7dWYydxdKpR4tuT_QlTn-293" value="" style="group;direction=south;" parent="7dWYydxdKpR4tuT_QlTn-157" vertex="1" connectable="0">
          <mxGeometry x="241" y="-20" width="37.860000000000014" height="23.930000000000064" as="geometry" />
        </mxCell>
        <mxCell id="7dWYydxdKpR4tuT_QlTn-294" value="" style="rounded=1;whiteSpace=wrap;html=1;arcSize=50;rotation=-90;direction=south;" parent="7dWYydxdKpR4tuT_QlTn-293" vertex="1">
          <mxGeometry x="2.1316282072803006e-14" y="9.237055564881302e-14" width="15.56" height="37.86" as="geometry" />
        </mxCell>
        <mxCell id="7dWYydxdKpR4tuT_QlTn-295" value="" style="ellipse;whiteSpace=wrap;html=1;aspect=fixed;fillColor=#000000;direction=west;" parent="7dWYydxdKpR4tuT_QlTn-293" vertex="1">
          <mxGeometry x="-8" y="13.930000000000064" width="10" height="10" as="geometry" />
        </mxCell>
        <mxCell id="7dWYydxdKpR4tuT_QlTn-296" value="" style="ellipse;whiteSpace=wrap;html=1;aspect=fixed;fillColor=#000000;direction=west;" parent="7dWYydxdKpR4tuT_QlTn-157" vertex="1">
          <mxGeometry x="254.93000000000006" y="-6.069999999999936" width="10" height="10" as="geometry" />
        </mxCell>
        <mxCell id="7dWYydxdKpR4tuT_QlTn-310" value="" style="group;direction=south;" parent="7dWYydxdKpR4tuT_QlTn-157" vertex="1" connectable="0">
          <mxGeometry x="71" y="-20" width="37.860000000000014" height="23.930000000000064" as="geometry" />
        </mxCell>
        <mxCell id="7dWYydxdKpR4tuT_QlTn-311" value="" style="rounded=1;whiteSpace=wrap;html=1;arcSize=50;rotation=-90;direction=south;" parent="7dWYydxdKpR4tuT_QlTn-310" vertex="1">
          <mxGeometry x="2.1316282072803006e-14" y="9.237055564881302e-14" width="15.56" height="37.86" as="geometry" />
        </mxCell>
        <mxCell id="7dWYydxdKpR4tuT_QlTn-312" value="" style="ellipse;whiteSpace=wrap;html=1;aspect=fixed;fillColor=#000000;direction=west;" parent="7dWYydxdKpR4tuT_QlTn-310" vertex="1">
          <mxGeometry x="-8" y="13.930000000000064" width="10" height="10" as="geometry" />
        </mxCell>
        <mxCell id="7dWYydxdKpR4tuT_QlTn-313" value="" style="ellipse;whiteSpace=wrap;html=1;aspect=fixed;fillColor=#000000;direction=west;" parent="7dWYydxdKpR4tuT_QlTn-157" vertex="1">
          <mxGeometry x="84.93000000000006" y="-6.069999999999936" width="10" height="10" as="geometry" />
        </mxCell>
        <mxCell id="7dWYydxdKpR4tuT_QlTn-4" value="" style="group" parent="1" vertex="1" connectable="0">
          <mxGeometry x="1079.0010125531694" y="1278.5258823529412" width="257.2881004253554" height="135.8823529411765" as="geometry" />
        </mxCell>
        <mxCell id="7dWYydxdKpR4tuT_QlTn-5" value="" style="rounded=0;whiteSpace=wrap;html=1;" parent="7dWYydxdKpR4tuT_QlTn-4" vertex="1">
          <mxGeometry width="257.2881004253554" height="135.8823529411765" as="geometry" />
        </mxCell>
        <mxCell id="7dWYydxdKpR4tuT_QlTn-6" value="Primary AI-Company" style="text;html=1;align=center;verticalAlign=middle;whiteSpace=wrap;rounded=0;" parent="7dWYydxdKpR4tuT_QlTn-4" vertex="1">
          <mxGeometry y="98.82352941176471" width="128.6440502126777" height="37.05882352941177" as="geometry" />
        </mxCell>
        <mxCell id="7dWYydxdKpR4tuT_QlTn-7" value="" style="endArrow=none;html=1;rounded=0;exitX=0.979;exitY=1;exitDx=0;exitDy=0;exitPerimeter=0;entryX=1;entryY=0.91;entryDx=0;entryDy=0;entryPerimeter=0;" parent="7dWYydxdKpR4tuT_QlTn-4" edge="1">
          <mxGeometry width="50" height="50" relative="1" as="geometry">
            <mxPoint x="231.55929038281988" y="135.8823529411765" as="sourcePoint" />
            <mxPoint x="257.2881004253554" y="117.3529411764706" as="targetPoint" />
          </mxGeometry>
        </mxCell>
        <mxCell id="7dWYydxdKpR4tuT_QlTn-61" value="&lt;font color=&quot;#000000&quot;&gt;Building new GenAI-Modell&lt;br&gt;&lt;/font&gt;" style="rounded=1;whiteSpace=wrap;html=1;fillColor=#f5f5f5;fontColor=#333333;strokeColor=#000000;" parent="7dWYydxdKpR4tuT_QlTn-4" vertex="1">
          <mxGeometry x="4.318987446830533" y="35.29411764705878" width="120" height="60" as="geometry" />
        </mxCell>
        <mxCell id="7dWYydxdKpR4tuT_QlTn-63" value="&lt;font color=&quot;#000000&quot;&gt;Providing GenAI-Service&lt;br&gt;&lt;/font&gt;" style="rounded=1;whiteSpace=wrap;html=1;fillColor=#f5f5f5;fontColor=#333333;strokeColor=#000000;" parent="7dWYydxdKpR4tuT_QlTn-4" vertex="1">
          <mxGeometry x="128.64898744683046" y="35.29411764705878" width="120" height="60" as="geometry" />
        </mxCell>
        <mxCell id="7dWYydxdKpR4tuT_QlTn-123" value="" style="group;direction=south;" parent="7dWYydxdKpR4tuT_QlTn-4" vertex="1" connectable="0">
          <mxGeometry x="124.31898744683053" y="-18.525882352941153" width="37.860000000000014" height="23.930000000000064" as="geometry" />
        </mxCell>
        <mxCell id="7dWYydxdKpR4tuT_QlTn-124" value="" style="rounded=1;whiteSpace=wrap;html=1;arcSize=50;rotation=-90;direction=south;" parent="7dWYydxdKpR4tuT_QlTn-123" vertex="1">
          <mxGeometry x="2.1316282072803006e-14" y="9.237055564881302e-14" width="15.56" height="37.86" as="geometry" />
        </mxCell>
        <mxCell id="7dWYydxdKpR4tuT_QlTn-125" value="" style="ellipse;whiteSpace=wrap;html=1;aspect=fixed;fillColor=#000000;direction=west;" parent="7dWYydxdKpR4tuT_QlTn-123" vertex="1">
          <mxGeometry x="-8" y="13.930000000000064" width="10" height="10" as="geometry" />
        </mxCell>
        <mxCell id="7dWYydxdKpR4tuT_QlTn-126" value="" style="ellipse;whiteSpace=wrap;html=1;aspect=fixed;fillColor=#000000;direction=west;" parent="7dWYydxdKpR4tuT_QlTn-4" vertex="1">
          <mxGeometry x="138.2489874468306" y="-4.595882352941089" width="10" height="10" as="geometry" />
        </mxCell>
        <mxCell id="7dWYydxdKpR4tuT_QlTn-8" value="" style="group" parent="1" vertex="1" connectable="0">
          <mxGeometry x="1388.9981761593526" y="1278.5258823529414" width="257.29182384064734" height="135.8823529411765" as="geometry" />
        </mxCell>
        <mxCell id="7dWYydxdKpR4tuT_QlTn-9" value="" style="rounded=0;whiteSpace=wrap;html=1;" parent="7dWYydxdKpR4tuT_QlTn-8" vertex="1">
          <mxGeometry width="257.2881004253554" height="135.8823529411765" as="geometry" />
        </mxCell>
        <mxCell id="7dWYydxdKpR4tuT_QlTn-10" value="Secondary AI-Company" style="text;html=1;align=center;verticalAlign=middle;whiteSpace=wrap;rounded=0;" parent="7dWYydxdKpR4tuT_QlTn-8" vertex="1">
          <mxGeometry y="98.82352941176471" width="112.563543936093" height="37.05882352941177" as="geometry" />
        </mxCell>
        <mxCell id="7dWYydxdKpR4tuT_QlTn-11" value="" style="endArrow=none;html=1;rounded=0;exitX=0.979;exitY=1;exitDx=0;exitDy=0;exitPerimeter=0;entryX=1;entryY=0.91;entryDx=0;entryDy=0;entryPerimeter=0;" parent="7dWYydxdKpR4tuT_QlTn-8" edge="1">
          <mxGeometry width="50" height="50" relative="1" as="geometry">
            <mxPoint x="231.55929038281988" y="135.8823529411765" as="sourcePoint" />
            <mxPoint x="257.2881004253554" y="117.3529411764706" as="targetPoint" />
          </mxGeometry>
        </mxCell>
        <mxCell id="7dWYydxdKpR4tuT_QlTn-64" value="&lt;font color=&quot;#000000&quot;&gt;Building GenAI-Modell&lt;br&gt;&lt;/font&gt;" style="rounded=1;whiteSpace=wrap;html=1;fillColor=#f5f5f5;fontColor=#333333;strokeColor=#000000;" parent="7dWYydxdKpR4tuT_QlTn-8" vertex="1">
          <mxGeometry x="10.001823840647376" y="37.944117647058754" width="120" height="60" as="geometry" />
        </mxCell>
        <mxCell id="7dWYydxdKpR4tuT_QlTn-65" value="&lt;font color=&quot;#000000&quot;&gt;Providing GenAI-Service&lt;br&gt;&lt;/font&gt;" style="rounded=1;whiteSpace=wrap;html=1;fillColor=#f5f5f5;fontColor=#333333;strokeColor=#000000;" parent="7dWYydxdKpR4tuT_QlTn-8" vertex="1">
          <mxGeometry x="137.29182384064734" y="37.94411764705865" width="120" height="60" as="geometry" />
        </mxCell>
        <mxCell id="7dWYydxdKpR4tuT_QlTn-105" value="" style="group;direction=south;" parent="7dWYydxdKpR4tuT_QlTn-8" vertex="1" connectable="0">
          <mxGeometry x="120.00182384064738" y="-18.52588235294138" width="37.860000000000014" height="23.930000000000064" as="geometry" />
        </mxCell>
        <mxCell id="7dWYydxdKpR4tuT_QlTn-106" value="" style="rounded=1;whiteSpace=wrap;html=1;arcSize=50;rotation=-90;direction=south;" parent="7dWYydxdKpR4tuT_QlTn-105" vertex="1">
          <mxGeometry x="2.1316282072803006e-14" y="9.237055564881302e-14" width="15.56" height="37.86" as="geometry" />
        </mxCell>
        <mxCell id="7dWYydxdKpR4tuT_QlTn-107" value="" style="ellipse;whiteSpace=wrap;html=1;aspect=fixed;fillColor=#000000;direction=west;" parent="7dWYydxdKpR4tuT_QlTn-105" vertex="1">
          <mxGeometry x="-8" y="13.930000000000064" width="10" height="10" as="geometry" />
        </mxCell>
        <mxCell id="7dWYydxdKpR4tuT_QlTn-108" value="" style="ellipse;whiteSpace=wrap;html=1;aspect=fixed;fillColor=#000000;direction=west;" parent="7dWYydxdKpR4tuT_QlTn-8" vertex="1">
          <mxGeometry x="133.93182384064744" y="-4.595882352941317" width="10" height="10" as="geometry" />
        </mxCell>
        <mxCell id="7dWYydxdKpR4tuT_QlTn-115" value="" style="group" parent="1" vertex="1" connectable="0">
          <mxGeometry x="1049" y="1327.54" width="15.559999999999945" height="37.860000000000014" as="geometry" />
        </mxCell>
        <mxCell id="7dWYydxdKpR4tuT_QlTn-116" value="" style="rounded=1;whiteSpace=wrap;html=1;arcSize=50;rotation=-90;" parent="7dWYydxdKpR4tuT_QlTn-115" vertex="1">
          <mxGeometry x="-11.149999999999977" y="11.150000000000091" width="37.86" height="15.56" as="geometry" />
        </mxCell>
        <mxCell id="7dWYydxdKpR4tuT_QlTn-117" value="" style="ellipse;whiteSpace=wrap;html=1;aspect=fixed;fillColor=#000000;" parent="7dWYydxdKpR4tuT_QlTn-115" vertex="1">
          <mxGeometry x="3.019999999999982" y="3.6100000000001273" width="10" height="10" as="geometry" />
        </mxCell>
        <mxCell id="7dWYydxdKpR4tuT_QlTn-118" value="" style="ellipse;whiteSpace=wrap;html=1;aspect=fixed;fillColor=#000000;" parent="7dWYydxdKpR4tuT_QlTn-115" vertex="1">
          <mxGeometry x="3.019999999999982" y="23.610000000000127" width="10" height="10" as="geometry" />
        </mxCell>
        <mxCell id="7dWYydxdKpR4tuT_QlTn-127" value="" style="endArrow=classic;html=1;rounded=0;exitX=0.5;exitY=1;exitDx=0;exitDy=0;entryX=0.5;entryY=1;entryDx=0;entryDy=0;" parent="1" source="7dWYydxdKpR4tuT_QlTn-125" target="7dWYydxdKpR4tuT_QlTn-108" edge="1">
          <mxGeometry width="50" height="50" relative="1" as="geometry">
            <mxPoint x="1169" y="1350" as="sourcePoint" />
            <mxPoint x="1219" y="1300" as="targetPoint" />
            <Array as="points">
              <mxPoint x="1199" y="1230" />
              <mxPoint x="1528" y="1230" />
            </Array>
          </mxGeometry>
        </mxCell>
        <mxCell id="7dWYydxdKpR4tuT_QlTn-128" value="" style="endArrow=classic;html=1;rounded=0;exitX=0.5;exitY=1;exitDx=0;exitDy=0;entryX=0.5;entryY=1;entryDx=0;entryDy=0;" parent="1" source="7dWYydxdKpR4tuT_QlTn-107" target="7dWYydxdKpR4tuT_QlTn-126" edge="1">
          <mxGeometry width="50" height="50" relative="1" as="geometry">
            <mxPoint x="1219" y="1300" as="sourcePoint" />
            <mxPoint x="1169" y="1350" as="targetPoint" />
            <Array as="points">
              <mxPoint x="1506" y="1250" />
              <mxPoint x="1222" y="1250" />
            </Array>
          </mxGeometry>
        </mxCell>
        <mxCell id="7dWYydxdKpR4tuT_QlTn-130" value="Pre-trained Model" style="text;html=1;align=center;verticalAlign=middle;whiteSpace=wrap;rounded=0;" parent="1" vertex="1">
          <mxGeometry x="1319" y="1210" width="120" height="30" as="geometry" />
        </mxCell>
        <mxCell id="7dWYydxdKpR4tuT_QlTn-131" value="Money" style="text;html=1;align=center;verticalAlign=middle;whiteSpace=wrap;rounded=0;" parent="1" vertex="1">
          <mxGeometry x="1319" y="1230" width="120" height="30" as="geometry" />
        </mxCell>
        <mxCell id="7dWYydxdKpR4tuT_QlTn-166" value="" style="group" parent="1" vertex="1" connectable="0">
          <mxGeometry x="1170" y="1620" width="385.55999999999995" height="173.93000000000006" as="geometry" />
        </mxCell>
        <mxCell id="7dWYydxdKpR4tuT_QlTn-167" value="" style="rounded=0;whiteSpace=wrap;html=1;" parent="7dWYydxdKpR4tuT_QlTn-166" vertex="1">
          <mxGeometry width="380" height="170" as="geometry" />
        </mxCell>
        <mxCell id="7dWYydxdKpR4tuT_QlTn-168" value="&lt;b&gt;User&lt;/b&gt;" style="text;html=1;align=center;verticalAlign=middle;whiteSpace=wrap;rounded=0;" parent="7dWYydxdKpR4tuT_QlTn-166" vertex="1">
          <mxGeometry y="140" width="70" height="30" as="geometry" />
        </mxCell>
        <mxCell id="7dWYydxdKpR4tuT_QlTn-181" value="" style="endArrow=none;html=1;rounded=0;exitX=0.979;exitY=1;exitDx=0;exitDy=0;exitPerimeter=0;" parent="7dWYydxdKpR4tuT_QlTn-166" edge="1">
          <mxGeometry width="50" height="50" relative="1" as="geometry">
            <mxPoint x="364" y="170" as="sourcePoint" />
            <mxPoint x="380" y="155" as="targetPoint" />
          </mxGeometry>
        </mxCell>
        <mxCell id="7dWYydxdKpR4tuT_QlTn-182" value="" style="group" parent="7dWYydxdKpR4tuT_QlTn-166" vertex="1" connectable="0">
          <mxGeometry x="-8" y="61.07000000000005" width="15.559999999999945" height="37.860000000000014" as="geometry" />
        </mxCell>
        <mxCell id="7dWYydxdKpR4tuT_QlTn-183" value="" style="group" parent="7dWYydxdKpR4tuT_QlTn-182" vertex="1" connectable="0">
          <mxGeometry x="2.042810365310288e-14" y="9.237055564881302e-14" width="15.560000000000002" height="37.86" as="geometry" />
        </mxCell>
        <mxCell id="7dWYydxdKpR4tuT_QlTn-184" value="" style="rounded=1;whiteSpace=wrap;html=1;arcSize=50;rotation=-90;" parent="7dWYydxdKpR4tuT_QlTn-183" vertex="1">
          <mxGeometry x="-11.149999999999999" y="11.149999999999999" width="37.86" height="15.56" as="geometry" />
        </mxCell>
        <mxCell id="7dWYydxdKpR4tuT_QlTn-185" value="" style="ellipse;whiteSpace=wrap;html=1;aspect=fixed;fillColor=#000000;" parent="7dWYydxdKpR4tuT_QlTn-183" vertex="1">
          <mxGeometry x="3.0199999999999614" y="3.610000000000035" width="10" height="10" as="geometry" />
        </mxCell>
        <mxCell id="7dWYydxdKpR4tuT_QlTn-186" value="" style="ellipse;whiteSpace=wrap;html=1;aspect=fixed;fillColor=#000000;" parent="7dWYydxdKpR4tuT_QlTn-183" vertex="1">
          <mxGeometry x="3.0199999999999614" y="23.610000000000035" width="10" height="10" as="geometry" />
        </mxCell>
        <mxCell id="7dWYydxdKpR4tuT_QlTn-187" value="" style="rounded=1;whiteSpace=wrap;html=1;arcSize=50;rotation=-90;direction=south;" parent="7dWYydxdKpR4tuT_QlTn-166" vertex="1">
          <mxGeometry x="188" y="-20" width="15.56" height="37.86" as="geometry" />
        </mxCell>
        <mxCell id="7dWYydxdKpR4tuT_QlTn-188" value="" style="ellipse;whiteSpace=wrap;html=1;aspect=fixed;fillColor=#000000;direction=west;" parent="7dWYydxdKpR4tuT_QlTn-166" vertex="1">
          <mxGeometry x="180" y="-6.069999999999936" width="10" height="10" as="geometry" />
        </mxCell>
        <mxCell id="7dWYydxdKpR4tuT_QlTn-189" value="" style="ellipse;whiteSpace=wrap;html=1;aspect=fixed;fillColor=#000000;direction=west;" parent="7dWYydxdKpR4tuT_QlTn-166" vertex="1">
          <mxGeometry x="201.93000000000006" y="-6.069999999999936" width="10" height="10" as="geometry" />
        </mxCell>
        <mxCell id="7dWYydxdKpR4tuT_QlTn-333" value="" style="group;direction=south;" parent="7dWYydxdKpR4tuT_QlTn-166" vertex="1" connectable="0">
          <mxGeometry x="189.99999999999977" y="150" width="37.860000000000014" height="23.930000000000064" as="geometry" />
        </mxCell>
        <mxCell id="7dWYydxdKpR4tuT_QlTn-334" value="" style="rounded=1;whiteSpace=wrap;html=1;arcSize=50;rotation=-90;direction=south;" parent="7dWYydxdKpR4tuT_QlTn-333" vertex="1">
          <mxGeometry x="2.1316282072803006e-14" y="9.237055564881302e-14" width="15.56" height="37.86" as="geometry" />
        </mxCell>
        <mxCell id="7dWYydxdKpR4tuT_QlTn-335" value="" style="ellipse;whiteSpace=wrap;html=1;aspect=fixed;fillColor=#000000;direction=west;" parent="7dWYydxdKpR4tuT_QlTn-333" vertex="1">
          <mxGeometry x="-8" y="13.930000000000064" width="10" height="10" as="geometry" />
        </mxCell>
        <mxCell id="7dWYydxdKpR4tuT_QlTn-336" value="" style="ellipse;whiteSpace=wrap;html=1;aspect=fixed;fillColor=#000000;direction=west;" parent="7dWYydxdKpR4tuT_QlTn-166" vertex="1">
          <mxGeometry x="203.93000000000006" y="163.93000000000006" width="10" height="10" as="geometry" />
        </mxCell>
        <mxCell id="7dWYydxdKpR4tuT_QlTn-101" value="" style="group" parent="7dWYydxdKpR4tuT_QlTn-166" vertex="1" connectable="0">
          <mxGeometry x="370" y="68.03999999999996" width="15.559999999999945" height="37.860000000000014" as="geometry" />
        </mxCell>
        <mxCell id="7dWYydxdKpR4tuT_QlTn-102" value="" style="rounded=1;whiteSpace=wrap;html=1;arcSize=50;rotation=-90;" parent="7dWYydxdKpR4tuT_QlTn-101" vertex="1">
          <mxGeometry x="-11.149999999999977" y="11.150000000000091" width="37.86" height="15.56" as="geometry" />
        </mxCell>
        <mxCell id="7dWYydxdKpR4tuT_QlTn-103" value="" style="ellipse;whiteSpace=wrap;html=1;aspect=fixed;fillColor=#000000;" parent="7dWYydxdKpR4tuT_QlTn-101" vertex="1">
          <mxGeometry x="3.019999999999982" y="3.6100000000001273" width="10" height="10" as="geometry" />
        </mxCell>
        <mxCell id="7dWYydxdKpR4tuT_QlTn-104" value="" style="ellipse;whiteSpace=wrap;html=1;aspect=fixed;fillColor=#000000;" parent="7dWYydxdKpR4tuT_QlTn-101" vertex="1">
          <mxGeometry x="3.019999999999982" y="23.610000000000127" width="10" height="10" as="geometry" />
        </mxCell>
        <mxCell id="7dWYydxdKpR4tuT_QlTn-190" value="" style="endArrow=classic;html=1;rounded=0;exitX=0.5;exitY=1;exitDx=0;exitDy=0;entryX=0.5;entryY=0;entryDx=0;entryDy=0;" parent="1" source="7dWYydxdKpR4tuT_QlTn-188" target="7dWYydxdKpR4tuT_QlTn-160" edge="1">
          <mxGeometry width="50" height="50" relative="1" as="geometry">
            <mxPoint x="1150" y="1580" as="sourcePoint" />
            <mxPoint x="1200" y="1530" as="targetPoint" />
          </mxGeometry>
        </mxCell>
        <mxCell id="7dWYydxdKpR4tuT_QlTn-191" value="" style="endArrow=classic;html=1;rounded=0;exitX=0.5;exitY=0;exitDx=0;exitDy=0;entryX=0.5;entryY=1;entryDx=0;entryDy=0;" parent="1" source="7dWYydxdKpR4tuT_QlTn-161" target="7dWYydxdKpR4tuT_QlTn-189" edge="1">
          <mxGeometry width="50" height="50" relative="1" as="geometry">
            <mxPoint x="1300" y="1580" as="sourcePoint" />
            <mxPoint x="1350" y="1530" as="targetPoint" />
          </mxGeometry>
        </mxCell>
        <mxCell id="7dWYydxdKpR4tuT_QlTn-192" value="Money" style="text;html=1;align=center;verticalAlign=middle;whiteSpace=wrap;rounded=0;rotation=90;" parent="1" vertex="1">
          <mxGeometry x="1310" y="1520" width="60" height="30" as="geometry" />
        </mxCell>
        <mxCell id="7dWYydxdKpR4tuT_QlTn-196" value="Service" style="text;html=1;align=center;verticalAlign=middle;whiteSpace=wrap;rounded=0;rotation=90;" parent="1" vertex="1">
          <mxGeometry x="1337.86" y="1535" width="60" as="geometry" />
        </mxCell>
        <mxCell id="7dWYydxdKpR4tuT_QlTn-197" value="" style="group" parent="1" vertex="1" connectable="0">
          <mxGeometry x="680" y="1640" width="305.55999999999995" height="150" as="geometry" />
        </mxCell>
        <mxCell id="7dWYydxdKpR4tuT_QlTn-198" value="" style="rounded=0;whiteSpace=wrap;html=1;" parent="7dWYydxdKpR4tuT_QlTn-197" vertex="1">
          <mxGeometry width="295.6738250855898" height="150" as="geometry" />
        </mxCell>
        <mxCell id="7dWYydxdKpR4tuT_QlTn-199" value="&lt;b&gt;Advertisement Company&lt;br&gt;&lt;/b&gt;" style="text;html=1;align=center;verticalAlign=middle;whiteSpace=wrap;rounded=0;" parent="7dWYydxdKpR4tuT_QlTn-197" vertex="1">
          <mxGeometry x="3.9299999999999997" y="123.53" width="160" height="26.47" as="geometry" />
        </mxCell>
        <mxCell id="7dWYydxdKpR4tuT_QlTn-204" value="" style="endArrow=none;html=1;rounded=0;exitX=0.979;exitY=1;exitDx=0;exitDy=0;exitPerimeter=0;" parent="7dWYydxdKpR4tuT_QlTn-197" edge="1">
          <mxGeometry width="50" height="50" relative="1" as="geometry">
            <mxPoint x="283.2244008714597" y="150" as="sourcePoint" />
            <mxPoint x="295.6738250855898" y="136.76470588235293" as="targetPoint" />
          </mxGeometry>
        </mxCell>
        <mxCell id="7dWYydxdKpR4tuT_QlTn-213" value="" style="group;direction=south;" parent="7dWYydxdKpR4tuT_QlTn-197" vertex="1" connectable="0">
          <mxGeometry x="150" y="-20" width="37.860000000000014" height="23.930000000000064" as="geometry" />
        </mxCell>
        <mxCell id="7dWYydxdKpR4tuT_QlTn-214" value="" style="rounded=1;whiteSpace=wrap;html=1;arcSize=50;rotation=-90;direction=south;" parent="7dWYydxdKpR4tuT_QlTn-213" vertex="1">
          <mxGeometry x="2.1316282072803006e-14" y="9.237055564881302e-14" width="15.56" height="37.86" as="geometry" />
        </mxCell>
        <mxCell id="7dWYydxdKpR4tuT_QlTn-215" value="" style="ellipse;whiteSpace=wrap;html=1;aspect=fixed;fillColor=#000000;direction=west;" parent="7dWYydxdKpR4tuT_QlTn-213" vertex="1">
          <mxGeometry x="-8" y="13.930000000000064" width="10" height="10" as="geometry" />
        </mxCell>
        <mxCell id="7dWYydxdKpR4tuT_QlTn-216" value="" style="ellipse;whiteSpace=wrap;html=1;aspect=fixed;fillColor=#000000;direction=west;" parent="7dWYydxdKpR4tuT_QlTn-197" vertex="1">
          <mxGeometry x="163.93000000000006" y="-6.069999999999936" width="10" height="10" as="geometry" />
        </mxCell>
        <mxCell id="7dWYydxdKpR4tuT_QlTn-284" value="" style="group" parent="7dWYydxdKpR4tuT_QlTn-197" vertex="1" connectable="0">
          <mxGeometry x="290" y="40" width="15.559999999999945" height="37.860000000000014" as="geometry" />
        </mxCell>
        <mxCell id="7dWYydxdKpR4tuT_QlTn-285" value="" style="rounded=1;whiteSpace=wrap;html=1;arcSize=50;rotation=-90;" parent="7dWYydxdKpR4tuT_QlTn-284" vertex="1">
          <mxGeometry x="-11.149999999999977" y="11.150000000000091" width="37.86" height="15.56" as="geometry" />
        </mxCell>
        <mxCell id="7dWYydxdKpR4tuT_QlTn-286" value="" style="ellipse;whiteSpace=wrap;html=1;aspect=fixed;fillColor=#000000;" parent="7dWYydxdKpR4tuT_QlTn-284" vertex="1">
          <mxGeometry x="3.019999999999982" y="3.6100000000001273" width="10" height="10" as="geometry" />
        </mxCell>
        <mxCell id="7dWYydxdKpR4tuT_QlTn-287" value="" style="ellipse;whiteSpace=wrap;html=1;aspect=fixed;fillColor=#000000;" parent="7dWYydxdKpR4tuT_QlTn-284" vertex="1">
          <mxGeometry x="3.019999999999982" y="23.610000000000127" width="10" height="10" as="geometry" />
        </mxCell>
        <mxCell id="7dWYydxdKpR4tuT_QlTn-425" value="&lt;font color=&quot;#000000&quot;&gt;Creating advertisements&lt;br&gt;&lt;/font&gt;" style="rounded=1;whiteSpace=wrap;html=1;fillColor=#f5f5f5;fontColor=#333333;strokeColor=#000000;container=0;" parent="7dWYydxdKpR4tuT_QlTn-197" vertex="1">
          <mxGeometry x="88.72805970149282" y="28.93000000000029" width="118.2089552238806" height="60" as="geometry" />
        </mxCell>
        <mxCell id="7dWYydxdKpR4tuT_QlTn-217" value="" style="endArrow=classic;html=1;rounded=0;exitX=0.5;exitY=1;exitDx=0;exitDy=0;entryX=0.194;entryY=0.869;entryDx=0;entryDy=0;entryPerimeter=0;" parent="1" source="7dWYydxdKpR4tuT_QlTn-215" target="7dWYydxdKpR4tuT_QlTn-219" edge="1">
          <mxGeometry width="50" height="50" relative="1" as="geometry">
            <mxPoint x="828" y="1630" as="sourcePoint" />
            <mxPoint x="1208" y="1450" as="targetPoint" />
            <Array as="points">
              <mxPoint x="827" y="1530" />
              <mxPoint x="1207" y="1530" />
            </Array>
          </mxGeometry>
        </mxCell>
        <mxCell id="7dWYydxdKpR4tuT_QlTn-222" value="" style="endArrow=classic;html=1;rounded=0;exitX=0.5;exitY=0;exitDx=0;exitDy=0;entryX=0.5;entryY=1;entryDx=0;entryDy=0;" parent="1" source="7dWYydxdKpR4tuT_QlTn-221" target="7dWYydxdKpR4tuT_QlTn-216" edge="1">
          <mxGeometry width="50" height="50" relative="1" as="geometry">
            <mxPoint x="1110" y="1560" as="sourcePoint" />
            <mxPoint x="1020" y="1600" as="targetPoint" />
            <Array as="points">
              <mxPoint x="1230" y="1550" />
              <mxPoint x="849" y="1550" />
            </Array>
          </mxGeometry>
        </mxCell>
        <mxCell id="7dWYydxdKpR4tuT_QlTn-223" value="Money" style="text;html=1;align=center;verticalAlign=middle;whiteSpace=wrap;rounded=0;" parent="1" vertex="1">
          <mxGeometry x="988.25" y="1500" width="60" height="30" as="geometry" />
        </mxCell>
        <mxCell id="7dWYydxdKpR4tuT_QlTn-224" value="Advertisement-Placement" style="text;html=1;align=center;verticalAlign=middle;whiteSpace=wrap;rounded=0;" parent="1" vertex="1">
          <mxGeometry x="979" y="1526" width="151" height="30" as="geometry" />
        </mxCell>
        <mxCell id="7dWYydxdKpR4tuT_QlTn-225" value="" style="group" parent="1" vertex="1" connectable="0">
          <mxGeometry x="1870" y="1287" width="160" height="116.93000000000006" as="geometry" />
        </mxCell>
        <mxCell id="7dWYydxdKpR4tuT_QlTn-226" value="" style="rounded=0;whiteSpace=wrap;html=1;" parent="7dWYydxdKpR4tuT_QlTn-225" vertex="1">
          <mxGeometry width="160" height="110" as="geometry" />
        </mxCell>
        <mxCell id="7dWYydxdKpR4tuT_QlTn-228" value="Businesses" style="text;html=1;align=center;verticalAlign=middle;whiteSpace=wrap;rounded=0;" parent="7dWYydxdKpR4tuT_QlTn-225" vertex="1">
          <mxGeometry x="-10" y="80" width="120" height="30" as="geometry" />
        </mxCell>
        <mxCell id="7dWYydxdKpR4tuT_QlTn-233" value="" style="endArrow=none;html=1;rounded=0;exitX=0.979;exitY=1;exitDx=0;exitDy=0;exitPerimeter=0;entryX=1;entryY=0.91;entryDx=0;entryDy=0;entryPerimeter=0;" parent="7dWYydxdKpR4tuT_QlTn-225" edge="1">
          <mxGeometry width="50" height="50" relative="1" as="geometry">
            <mxPoint x="144" y="110" as="sourcePoint" />
            <mxPoint x="160" y="95" as="targetPoint" />
          </mxGeometry>
        </mxCell>
        <mxCell id="7dWYydxdKpR4tuT_QlTn-239" value="" style="group" parent="7dWYydxdKpR4tuT_QlTn-225" vertex="1" connectable="0">
          <mxGeometry x="-10" y="32.1400000000001" width="15.559999999999945" height="37.860000000000014" as="geometry" />
        </mxCell>
        <mxCell id="7dWYydxdKpR4tuT_QlTn-240" value="" style="rounded=1;whiteSpace=wrap;html=1;arcSize=50;rotation=-90;" parent="7dWYydxdKpR4tuT_QlTn-239" vertex="1">
          <mxGeometry x="-11.149999999999977" y="11.150000000000091" width="37.86" height="15.56" as="geometry" />
        </mxCell>
        <mxCell id="7dWYydxdKpR4tuT_QlTn-241" value="" style="ellipse;whiteSpace=wrap;html=1;aspect=fixed;fillColor=#000000;" parent="7dWYydxdKpR4tuT_QlTn-239" vertex="1">
          <mxGeometry x="3.019999999999982" y="3.6100000000001273" width="10" height="10" as="geometry" />
        </mxCell>
        <mxCell id="7dWYydxdKpR4tuT_QlTn-242" value="" style="ellipse;whiteSpace=wrap;html=1;aspect=fixed;fillColor=#000000;" parent="7dWYydxdKpR4tuT_QlTn-239" vertex="1">
          <mxGeometry x="3.019999999999982" y="23.610000000000127" width="10" height="10" as="geometry" />
        </mxCell>
        <mxCell id="7dWYydxdKpR4tuT_QlTn-267" value="" style="group;direction=south;" parent="7dWYydxdKpR4tuT_QlTn-225" vertex="1" connectable="0">
          <mxGeometry x="110" y="-17" width="37.860000000000014" height="23.930000000000064" as="geometry" />
        </mxCell>
        <mxCell id="7dWYydxdKpR4tuT_QlTn-268" value="" style="rounded=1;whiteSpace=wrap;html=1;arcSize=50;rotation=-90;direction=south;" parent="7dWYydxdKpR4tuT_QlTn-267" vertex="1">
          <mxGeometry x="2.1316282072803006e-14" y="9.237055564881302e-14" width="15.56" height="37.86" as="geometry" />
        </mxCell>
        <mxCell id="7dWYydxdKpR4tuT_QlTn-269" value="" style="ellipse;whiteSpace=wrap;html=1;aspect=fixed;fillColor=#000000;direction=west;" parent="7dWYydxdKpR4tuT_QlTn-267" vertex="1">
          <mxGeometry x="-8" y="13.930000000000064" width="10" height="10" as="geometry" />
        </mxCell>
        <mxCell id="7dWYydxdKpR4tuT_QlTn-270" value="" style="ellipse;whiteSpace=wrap;html=1;aspect=fixed;fillColor=#000000;direction=west;" parent="7dWYydxdKpR4tuT_QlTn-225" vertex="1">
          <mxGeometry x="123.93000000000006" y="-3.0699999999999363" width="10" height="10" as="geometry" />
        </mxCell>
        <mxCell id="7dWYydxdKpR4tuT_QlTn-416" value="" style="group;direction=south;" parent="7dWYydxdKpR4tuT_QlTn-225" vertex="1" connectable="0">
          <mxGeometry x="96.07000000000016" y="93" width="37.860000000000014" height="23.930000000000064" as="geometry" />
        </mxCell>
        <mxCell id="7dWYydxdKpR4tuT_QlTn-417" value="" style="rounded=1;whiteSpace=wrap;html=1;arcSize=50;rotation=-90;direction=south;" parent="7dWYydxdKpR4tuT_QlTn-416" vertex="1">
          <mxGeometry x="2.1316282072803006e-14" y="9.237055564881302e-14" width="15.56" height="37.86" as="geometry" />
        </mxCell>
        <mxCell id="7dWYydxdKpR4tuT_QlTn-418" value="" style="ellipse;whiteSpace=wrap;html=1;aspect=fixed;fillColor=#000000;direction=west;" parent="7dWYydxdKpR4tuT_QlTn-416" vertex="1">
          <mxGeometry x="-8" y="13.930000000000064" width="10" height="10" as="geometry" />
        </mxCell>
        <mxCell id="7dWYydxdKpR4tuT_QlTn-419" value="" style="ellipse;whiteSpace=wrap;html=1;aspect=fixed;fillColor=#000000;direction=west;" parent="7dWYydxdKpR4tuT_QlTn-225" vertex="1">
          <mxGeometry x="110" y="106.93000000000006" width="10" height="10" as="geometry" />
        </mxCell>
        <mxCell id="7dWYydxdKpR4tuT_QlTn-246" value="" style="endArrow=classic;html=1;rounded=0;exitX=0;exitY=0.5;exitDx=0;exitDy=0;entryX=1;entryY=0.5;entryDx=0;entryDy=0;" parent="1" source="7dWYydxdKpR4tuT_QlTn-241" target="7dWYydxdKpR4tuT_QlTn-164" edge="1">
          <mxGeometry width="50" height="50" relative="1" as="geometry">
            <mxPoint x="1650" y="1410" as="sourcePoint" />
            <mxPoint x="1700" y="1360" as="targetPoint" />
          </mxGeometry>
        </mxCell>
        <mxCell id="7dWYydxdKpR4tuT_QlTn-247" value="" style="endArrow=classic;html=1;rounded=0;exitX=1;exitY=0.5;exitDx=0;exitDy=0;entryX=0;entryY=0.5;entryDx=0;entryDy=0;" parent="1" source="7dWYydxdKpR4tuT_QlTn-165" target="7dWYydxdKpR4tuT_QlTn-242" edge="1">
          <mxGeometry width="50" height="50" relative="1" as="geometry">
            <mxPoint x="1760" y="1420" as="sourcePoint" />
            <mxPoint x="1860" y="1350" as="targetPoint" />
          </mxGeometry>
        </mxCell>
        <mxCell id="7dWYydxdKpR4tuT_QlTn-248" value="Money" style="text;html=1;align=center;verticalAlign=middle;whiteSpace=wrap;rounded=0;" parent="1" vertex="1">
          <mxGeometry x="1733.07" y="1297.54" width="60" height="30" as="geometry" />
        </mxCell>
        <mxCell id="7dWYydxdKpR4tuT_QlTn-249" value="AI-Service" style="text;html=1;align=center;verticalAlign=middle;whiteSpace=wrap;rounded=0;" parent="1" vertex="1">
          <mxGeometry x="1710" y="1323.93" width="130" height="30" as="geometry" />
        </mxCell>
        <mxCell id="7dWYydxdKpR4tuT_QlTn-260" value="" style="group" parent="1" vertex="1" connectable="0">
          <mxGeometry x="1840" y="1040" width="430" height="130" as="geometry" />
        </mxCell>
        <mxCell id="7dWYydxdKpR4tuT_QlTn-251" value="" style="rounded=0;whiteSpace=wrap;html=1;container=0;" parent="7dWYydxdKpR4tuT_QlTn-260" vertex="1">
          <mxGeometry x="25.29411764705863" width="404.7058823529412" height="116.47875755991929" as="geometry" />
        </mxCell>
        <mxCell id="7dWYydxdKpR4tuT_QlTn-253" value="" style="endArrow=none;html=1;rounded=0;exitX=0.979;exitY=1;exitDx=0;exitDy=0;exitPerimeter=0;entryX=1;entryY=0.91;entryDx=0;entryDy=0;entryPerimeter=0;" parent="7dWYydxdKpR4tuT_QlTn-260" edge="1">
          <mxGeometry width="50" height="50" relative="1" as="geometry">
            <mxPoint x="389.529411764706" y="116.47875755991929" as="sourcePoint" />
            <mxPoint x="430" y="100.5952906199303" as="targetPoint" />
          </mxGeometry>
        </mxCell>
        <mxCell id="7dWYydxdKpR4tuT_QlTn-259" value="&lt;font color=&quot;#000000&quot;&gt;Regulate&lt;/font&gt;" style="rounded=1;whiteSpace=wrap;html=1;fillColor=#f5f5f5;fontColor=#333333;strokeColor=#000000;" parent="7dWYydxdKpR4tuT_QlTn-260" vertex="1">
          <mxGeometry x="40" y="20" width="120" height="60" as="geometry" />
        </mxCell>
        <mxCell id="7dWYydxdKpR4tuT_QlTn-261" value="&lt;font color=&quot;#000000&quot;&gt;Govern&lt;/font&gt;" style="rounded=1;whiteSpace=wrap;html=1;fillColor=#f5f5f5;fontColor=#333333;strokeColor=#000000;" parent="7dWYydxdKpR4tuT_QlTn-260" vertex="1">
          <mxGeometry x="167.65" y="20" width="120" height="60" as="geometry" />
        </mxCell>
        <mxCell id="9ywdbIWpezrS7CgmG4CW-1" value="&lt;font color=&quot;#000000&quot;&gt;provide legislation&lt;/font&gt;" style="rounded=1;whiteSpace=wrap;html=1;fillColor=#f5f5f5;fontColor=#333333;strokeColor=#000000;" vertex="1" parent="7dWYydxdKpR4tuT_QlTn-260">
          <mxGeometry x="300" y="20" width="120" height="60" as="geometry" />
        </mxCell>
        <mxCell id="7dWYydxdKpR4tuT_QlTn-263" value="" style="group;direction=south;" parent="7dWYydxdKpR4tuT_QlTn-260" vertex="1" connectable="0">
          <mxGeometry x="140" y="100" width="37.860000000000014" height="23.930000000000064" as="geometry" />
        </mxCell>
        <mxCell id="7dWYydxdKpR4tuT_QlTn-264" value="" style="rounded=1;whiteSpace=wrap;html=1;arcSize=50;rotation=-90;direction=south;" parent="7dWYydxdKpR4tuT_QlTn-263" vertex="1">
          <mxGeometry x="2.1316282072803006e-14" y="9.237055564881302e-14" width="15.56" height="37.86" as="geometry" />
        </mxCell>
        <mxCell id="7dWYydxdKpR4tuT_QlTn-265" value="" style="ellipse;whiteSpace=wrap;html=1;aspect=fixed;fillColor=#000000;direction=west;" parent="7dWYydxdKpR4tuT_QlTn-263" vertex="1">
          <mxGeometry x="-8" y="13.930000000000064" width="10" height="10" as="geometry" />
        </mxCell>
        <mxCell id="7dWYydxdKpR4tuT_QlTn-266" value="" style="ellipse;whiteSpace=wrap;html=1;aspect=fixed;fillColor=#000000;direction=west;" parent="7dWYydxdKpR4tuT_QlTn-260" vertex="1">
          <mxGeometry x="153.93000000000006" y="113.93000000000006" width="10" height="10" as="geometry" />
        </mxCell>
        <mxCell id="7dWYydxdKpR4tuT_QlTn-255" value="" style="rounded=1;whiteSpace=wrap;html=1;arcSize=50;rotation=-90;container=0;" parent="7dWYydxdKpR4tuT_QlTn-260" vertex="1">
          <mxGeometry x="10" y="50.7800000000002" width="37.86" height="15.56" as="geometry" />
        </mxCell>
        <mxCell id="7dWYydxdKpR4tuT_QlTn-256" value="" style="ellipse;whiteSpace=wrap;html=1;aspect=fixed;fillColor=#000000;container=0;" parent="7dWYydxdKpR4tuT_QlTn-260" vertex="1">
          <mxGeometry x="24.170000000000073" y="43.24000000000024" width="10" height="10" as="geometry" />
        </mxCell>
        <mxCell id="7dWYydxdKpR4tuT_QlTn-257" value="" style="ellipse;whiteSpace=wrap;html=1;aspect=fixed;fillColor=#000000;container=0;" parent="7dWYydxdKpR4tuT_QlTn-260" vertex="1">
          <mxGeometry x="24.170000000000073" y="63.24000000000024" width="10" height="10" as="geometry" />
        </mxCell>
        <mxCell id="7dWYydxdKpR4tuT_QlTn-360" value="" style="rounded=1;whiteSpace=wrap;html=1;arcSize=50;rotation=-90;direction=south;" parent="7dWYydxdKpR4tuT_QlTn-260" vertex="1">
          <mxGeometry x="97.99999999999977" y="-17.8599999999999" width="15.56" height="37.86" as="geometry" />
        </mxCell>
        <mxCell id="7dWYydxdKpR4tuT_QlTn-361" value="" style="ellipse;whiteSpace=wrap;html=1;aspect=fixed;fillColor=#000000;direction=west;" parent="7dWYydxdKpR4tuT_QlTn-260" vertex="1">
          <mxGeometry x="89.99999999999977" y="-3.9300000000000637" width="10" height="10" as="geometry" />
        </mxCell>
        <mxCell id="7dWYydxdKpR4tuT_QlTn-362" value="" style="ellipse;whiteSpace=wrap;html=1;aspect=fixed;fillColor=#000000;direction=west;" parent="7dWYydxdKpR4tuT_QlTn-260" vertex="1">
          <mxGeometry x="111.92999999999984" y="-3.9300000000000637" width="10" height="10" as="geometry" />
        </mxCell>
        <mxCell id="7dWYydxdKpR4tuT_QlTn-271" value="" style="endArrow=classic;html=1;rounded=0;exitX=0.5;exitY=0;exitDx=0;exitDy=0;entryX=0.5;entryY=1;entryDx=0;entryDy=0;" parent="1" source="7dWYydxdKpR4tuT_QlTn-265" target="7dWYydxdKpR4tuT_QlTn-269" edge="1">
          <mxGeometry width="50" height="50" relative="1" as="geometry">
            <mxPoint x="1930" y="1160" as="sourcePoint" />
            <mxPoint x="1980" y="1110" as="targetPoint" />
          </mxGeometry>
        </mxCell>
        <mxCell id="7dWYydxdKpR4tuT_QlTn-272" value="" style="endArrow=classic;html=1;rounded=0;exitX=0.5;exitY=1;exitDx=0;exitDy=0;entryX=0.5;entryY=0;entryDx=0;entryDy=0;" parent="1" source="7dWYydxdKpR4tuT_QlTn-270" target="7dWYydxdKpR4tuT_QlTn-266" edge="1">
          <mxGeometry width="50" height="50" relative="1" as="geometry">
            <mxPoint x="1980" y="1110" as="sourcePoint" />
            <mxPoint x="1930" y="1160" as="targetPoint" />
          </mxGeometry>
        </mxCell>
        <mxCell id="7dWYydxdKpR4tuT_QlTn-277" value="" style="endArrow=classic;html=1;rounded=0;exitX=0.5;exitY=1;exitDx=0;exitDy=0;entryX=0;entryY=0.5;entryDx=0;entryDy=0;" parent="1" source="7dWYydxdKpR4tuT_QlTn-275" target="7dWYydxdKpR4tuT_QlTn-256" edge="1">
          <mxGeometry width="50" height="50" relative="1" as="geometry">
            <mxPoint x="1910" y="1080" as="sourcePoint" />
            <mxPoint x="1960" y="1030" as="targetPoint" />
            <Array as="points">
              <mxPoint x="1527" y="1090" />
            </Array>
          </mxGeometry>
        </mxCell>
        <mxCell id="7dWYydxdKpR4tuT_QlTn-278" value="" style="endArrow=classic;html=1;rounded=0;exitX=0;exitY=0.5;exitDx=0;exitDy=0;entryX=0.5;entryY=1;entryDx=0;entryDy=0;" parent="1" source="7dWYydxdKpR4tuT_QlTn-257" target="7dWYydxdKpR4tuT_QlTn-276" edge="1">
          <mxGeometry width="50" height="50" relative="1" as="geometry">
            <mxPoint x="1700" y="1180" as="sourcePoint" />
            <mxPoint x="1750" y="1130" as="targetPoint" />
            <Array as="points">
              <mxPoint x="1550" y="1110" />
            </Array>
          </mxGeometry>
        </mxCell>
        <mxCell id="7dWYydxdKpR4tuT_QlTn-280" value="work permission and sanctions" style="text;html=1;align=center;verticalAlign=middle;whiteSpace=wrap;rounded=0;" parent="1" vertex="1">
          <mxGeometry x="1656.5" y="1110" width="133.5" height="30" as="geometry" />
        </mxCell>
        <mxCell id="7dWYydxdKpR4tuT_QlTn-281" value="work permission and sanctions" style="text;html=1;align=center;verticalAlign=middle;whiteSpace=wrap;rounded=0;rotation=90;" parent="1" vertex="1">
          <mxGeometry x="1900" y="1210" width="118.29" height="30" as="geometry" />
        </mxCell>
        <mxCell id="7dWYydxdKpR4tuT_QlTn-282" value="Taxes+fines payments" style="text;html=1;align=center;verticalAlign=middle;whiteSpace=wrap;rounded=0;" parent="1" vertex="1">
          <mxGeometry x="1674.5" y="1060" width="95.5" height="30" as="geometry" />
        </mxCell>
        <mxCell id="7dWYydxdKpR4tuT_QlTn-283" value="taxes+fines payment" style="text;html=1;align=center;verticalAlign=middle;whiteSpace=wrap;rounded=0;rotation=90;" parent="1" vertex="1">
          <mxGeometry x="1970" y="1211.82" width="98" height="30" as="geometry" />
        </mxCell>
        <mxCell id="7dWYydxdKpR4tuT_QlTn-289" value="" style="endArrow=classic;html=1;rounded=0;exitX=1;exitY=0.5;exitDx=0;exitDy=0;entryX=0;entryY=0.5;entryDx=0;entryDy=0;" parent="1" source="7dWYydxdKpR4tuT_QlTn-286" target="7dWYydxdKpR4tuT_QlTn-185" edge="1">
          <mxGeometry width="50" height="50" relative="1" as="geometry">
            <mxPoint x="1210" y="1640" as="sourcePoint" />
            <mxPoint x="1260" y="1590" as="targetPoint" />
          </mxGeometry>
        </mxCell>
        <mxCell id="7dWYydxdKpR4tuT_QlTn-290" value="" style="endArrow=classic;html=1;rounded=0;exitX=0.25;exitY=0;exitDx=0;exitDy=0;entryX=1;entryY=0.5;entryDx=0;entryDy=0;" parent="1" source="7dWYydxdKpR4tuT_QlTn-184" target="7dWYydxdKpR4tuT_QlTn-287" edge="1">
          <mxGeometry width="50" height="50" relative="1" as="geometry">
            <mxPoint x="1210" y="1640" as="sourcePoint" />
            <mxPoint x="1260" y="1590" as="targetPoint" />
          </mxGeometry>
        </mxCell>
        <mxCell id="7dWYydxdKpR4tuT_QlTn-291" value="Traffick/Money" style="text;html=1;align=center;verticalAlign=middle;whiteSpace=wrap;rounded=0;" parent="1" vertex="1">
          <mxGeometry x="1025" y="1684" width="90" height="30" as="geometry" />
        </mxCell>
        <mxCell id="7dWYydxdKpR4tuT_QlTn-292" value="Advertisement" style="text;html=1;align=center;verticalAlign=middle;whiteSpace=wrap;rounded=0;" parent="1" vertex="1">
          <mxGeometry x="1040" y="1660" width="60" height="30" as="geometry" />
        </mxCell>
        <mxCell id="7dWYydxdKpR4tuT_QlTn-297" value="" style="group" parent="1" vertex="1" connectable="0">
          <mxGeometry x="1409.9965671641794" y="890" width="157.61194029850745" height="110" as="geometry" />
        </mxCell>
        <mxCell id="7dWYydxdKpR4tuT_QlTn-298" value="" style="rounded=0;whiteSpace=wrap;html=1;" parent="7dWYydxdKpR4tuT_QlTn-297" vertex="1">
          <mxGeometry width="157.61194029850745" height="110" as="geometry" />
        </mxCell>
        <mxCell id="7dWYydxdKpR4tuT_QlTn-300" value="Software Developer" style="text;html=1;align=center;verticalAlign=middle;whiteSpace=wrap;rounded=0;" parent="7dWYydxdKpR4tuT_QlTn-297" vertex="1">
          <mxGeometry y="80" width="110" height="30" as="geometry" />
        </mxCell>
        <mxCell id="7dWYydxdKpR4tuT_QlTn-301" value="" style="group" parent="7dWYydxdKpR4tuT_QlTn-297" vertex="1" connectable="0">
          <mxGeometry x="-9.996567164179169" y="21.07000000000005" width="15.559999999999945" height="37.860000000000014" as="geometry" />
        </mxCell>
        <mxCell id="7dWYydxdKpR4tuT_QlTn-302" value="" style="rounded=1;whiteSpace=wrap;html=1;arcSize=50;rotation=-90;" parent="7dWYydxdKpR4tuT_QlTn-301" vertex="1">
          <mxGeometry x="-11.149999999999977" y="11.150000000000091" width="37.86" height="15.56" as="geometry" />
        </mxCell>
        <mxCell id="7dWYydxdKpR4tuT_QlTn-303" value="" style="ellipse;whiteSpace=wrap;html=1;aspect=fixed;fillColor=#000000;" parent="7dWYydxdKpR4tuT_QlTn-301" vertex="1">
          <mxGeometry x="3.019999999999982" y="3.6100000000001273" width="10" height="10" as="geometry" />
        </mxCell>
        <mxCell id="7dWYydxdKpR4tuT_QlTn-304" value="" style="ellipse;whiteSpace=wrap;html=1;aspect=fixed;fillColor=#000000;" parent="7dWYydxdKpR4tuT_QlTn-301" vertex="1">
          <mxGeometry x="3.019999999999982" y="23.610000000000127" width="10" height="10" as="geometry" />
        </mxCell>
        <mxCell id="7dWYydxdKpR4tuT_QlTn-305" value="" style="endArrow=none;html=1;rounded=0;exitX=0.979;exitY=1;exitDx=0;exitDy=0;exitPerimeter=0;entryX=1;entryY=0.91;entryDx=0;entryDy=0;entryPerimeter=0;" parent="7dWYydxdKpR4tuT_QlTn-297" edge="1">
          <mxGeometry width="50" height="50" relative="1" as="geometry">
            <mxPoint x="141.61343283582096" y="110" as="sourcePoint" />
            <mxPoint x="157.61343283582096" y="95" as="targetPoint" />
          </mxGeometry>
        </mxCell>
        <mxCell id="7dWYydxdKpR4tuT_QlTn-306" value="" style="endArrow=classic;html=1;rounded=0;exitX=0.25;exitY=0;exitDx=0;exitDy=0;entryX=0;entryY=0.5;entryDx=0;entryDy=0;" parent="1" source="7dWYydxdKpR4tuT_QlTn-294" target="7dWYydxdKpR4tuT_QlTn-303" edge="1">
          <mxGeometry width="50" height="50" relative="1" as="geometry">
            <mxPoint x="1550" y="1020" as="sourcePoint" />
            <mxPoint x="1350" y="890" as="targetPoint" />
            <Array as="points">
              <mxPoint x="1300" y="921" />
            </Array>
          </mxGeometry>
        </mxCell>
        <mxCell id="7dWYydxdKpR4tuT_QlTn-307" value="" style="endArrow=classic;html=1;rounded=0;entryX=0.5;entryY=1;entryDx=0;entryDy=0;" parent="1" target="7dWYydxdKpR4tuT_QlTn-296" edge="1">
          <mxGeometry width="50" height="50" relative="1" as="geometry">
            <mxPoint x="1403" y="940" as="sourcePoint" />
            <mxPoint x="1530" y="1030" as="targetPoint" />
            <Array as="points">
              <mxPoint x="1320" y="940" />
            </Array>
          </mxGeometry>
        </mxCell>
        <mxCell id="7dWYydxdKpR4tuT_QlTn-308" value="salary" style="text;html=1;align=center;verticalAlign=middle;whiteSpace=wrap;rounded=0;" parent="1" vertex="1">
          <mxGeometry x="1329" y="890" width="60" height="30" as="geometry" />
        </mxCell>
        <mxCell id="7dWYydxdKpR4tuT_QlTn-309" value="expertise" style="text;html=1;align=center;verticalAlign=middle;whiteSpace=wrap;rounded=0;" parent="1" vertex="1">
          <mxGeometry x="1329" y="940" width="60" height="30" as="geometry" />
        </mxCell>
        <mxCell id="7dWYydxdKpR4tuT_QlTn-316" value="" style="rounded=0;whiteSpace=wrap;html=1;container=0;" parent="1" vertex="1">
          <mxGeometry x="977.9765671641794" y="890" width="157.61194029850745" height="110" as="geometry" />
        </mxCell>
        <mxCell id="7dWYydxdKpR4tuT_QlTn-317" value="&lt;font color=&quot;#000000&quot;&gt;Selling and Collecting Data&lt;br&gt;&lt;/font&gt;" style="rounded=1;whiteSpace=wrap;html=1;fillColor=#f5f5f5;fontColor=#333333;strokeColor=#000000;container=0;" parent="1" vertex="1">
          <mxGeometry x="997.6780597014929" y="900" width="118.2089552238806" height="60" as="geometry" />
        </mxCell>
        <mxCell id="7dWYydxdKpR4tuT_QlTn-318" value="Data Provider" style="text;html=1;align=center;verticalAlign=middle;whiteSpace=wrap;rounded=0;container=0;" parent="1" vertex="1">
          <mxGeometry x="977.9765671641794" y="970" width="80" height="30" as="geometry" />
        </mxCell>
        <mxCell id="7dWYydxdKpR4tuT_QlTn-323" value="" style="endArrow=none;html=1;rounded=0;exitX=0.979;exitY=1;exitDx=0;exitDy=0;exitPerimeter=0;entryX=1;entryY=0.91;entryDx=0;entryDy=0;entryPerimeter=0;" parent="1" edge="1">
          <mxGeometry width="50" height="50" relative="1" as="geometry">
            <mxPoint x="1119.5900000000004" y="1000" as="sourcePoint" />
            <mxPoint x="1135.5900000000004" y="985" as="targetPoint" />
          </mxGeometry>
        </mxCell>
        <mxCell id="7dWYydxdKpR4tuT_QlTn-320" value="" style="rounded=1;whiteSpace=wrap;html=1;arcSize=50;rotation=-90;container=0;" parent="1" vertex="1">
          <mxGeometry x="960.2500000000002" y="922.5400000000002" width="37.86" height="15.56" as="geometry" />
        </mxCell>
        <mxCell id="7dWYydxdKpR4tuT_QlTn-321" value="" style="ellipse;whiteSpace=wrap;html=1;aspect=fixed;fillColor=#000000;container=0;" parent="1" vertex="1">
          <mxGeometry x="974.4200000000002" y="915.0000000000002" width="10" height="10" as="geometry" />
        </mxCell>
        <mxCell id="7dWYydxdKpR4tuT_QlTn-322" value="" style="ellipse;whiteSpace=wrap;html=1;aspect=fixed;fillColor=#000000;container=0;" parent="1" vertex="1">
          <mxGeometry x="974.4200000000002" y="935.0000000000002" width="10" height="10" as="geometry" />
        </mxCell>
        <mxCell id="7dWYydxdKpR4tuT_QlTn-324" value="" style="group;direction=south;" parent="1" vertex="1" connectable="0">
          <mxGeometry x="1070" y="980" width="37.860000000000014" height="23.930000000000064" as="geometry" />
        </mxCell>
        <mxCell id="7dWYydxdKpR4tuT_QlTn-325" value="" style="rounded=1;whiteSpace=wrap;html=1;arcSize=50;rotation=-90;direction=south;" parent="7dWYydxdKpR4tuT_QlTn-324" vertex="1">
          <mxGeometry x="2.1316282072803006e-14" y="9.237055564881302e-14" width="15.56" height="37.86" as="geometry" />
        </mxCell>
        <mxCell id="7dWYydxdKpR4tuT_QlTn-326" value="" style="ellipse;whiteSpace=wrap;html=1;aspect=fixed;fillColor=#000000;direction=west;" parent="7dWYydxdKpR4tuT_QlTn-324" vertex="1">
          <mxGeometry x="-8" y="13.930000000000064" width="10" height="10" as="geometry" />
        </mxCell>
        <mxCell id="7dWYydxdKpR4tuT_QlTn-327" value="" style="ellipse;whiteSpace=wrap;html=1;aspect=fixed;fillColor=#000000;direction=west;" parent="1" vertex="1">
          <mxGeometry x="1083.93" y="993.9300000000001" width="10" height="10" as="geometry" />
        </mxCell>
        <mxCell id="7dWYydxdKpR4tuT_QlTn-329" value="" style="endArrow=classic;html=1;rounded=0;exitX=0.75;exitY=1;exitDx=0;exitDy=0;entryX=0.5;entryY=1;entryDx=0;entryDy=0;" parent="1" source="7dWYydxdKpR4tuT_QlTn-325" target="7dWYydxdKpR4tuT_QlTn-313" edge="1">
          <mxGeometry width="50" height="50" relative="1" as="geometry">
            <mxPoint x="1190" y="1090" as="sourcePoint" />
            <mxPoint x="1240" y="1040" as="targetPoint" />
            <Array as="points">
              <mxPoint x="1087" y="1050" />
              <mxPoint x="1150" y="1050" />
            </Array>
          </mxGeometry>
        </mxCell>
        <mxCell id="7dWYydxdKpR4tuT_QlTn-328" value="" style="endArrow=classic;html=1;rounded=0;exitX=0.5;exitY=1;exitDx=0;exitDy=0;entryX=0.5;entryY=0;entryDx=0;entryDy=0;" parent="1" source="7dWYydxdKpR4tuT_QlTn-312" target="7dWYydxdKpR4tuT_QlTn-326" edge="1">
          <mxGeometry width="50" height="50" relative="1" as="geometry">
            <mxPoint x="1240" y="1040" as="sourcePoint" />
            <mxPoint x="1190" y="1090" as="targetPoint" />
            <Array as="points">
              <mxPoint x="1127" y="1070" />
              <mxPoint x="1067" y="1070" />
            </Array>
          </mxGeometry>
        </mxCell>
        <mxCell id="7dWYydxdKpR4tuT_QlTn-331" value="Money" style="text;html=1;align=center;verticalAlign=middle;whiteSpace=wrap;rounded=0;rotation=90;" parent="1" vertex="1">
          <mxGeometry x="1081.5" y="1110" width="60" height="30" as="geometry" />
        </mxCell>
        <mxCell id="7dWYydxdKpR4tuT_QlTn-332" value="Data" style="text;html=1;align=center;verticalAlign=middle;whiteSpace=wrap;rounded=0;rotation=90;" parent="1" vertex="1">
          <mxGeometry x="1111" y="1110" width="60" height="30" as="geometry" />
        </mxCell>
        <mxCell id="7dWYydxdKpR4tuT_QlTn-339" value="" style="endArrow=classic;html=1;rounded=0;exitX=0.25;exitY=0;exitDx=0;exitDy=0;entryX=0.5;entryY=0;entryDx=0;entryDy=0;" parent="1" source="7dWYydxdKpR4tuT_QlTn-320" target="7dWYydxdKpR4tuT_QlTn-335" edge="1">
          <mxGeometry width="50" height="50" relative="1" as="geometry">
            <mxPoint x="810" y="1530" as="sourcePoint" />
            <mxPoint x="760" y="1580" as="targetPoint" />
            <Array as="points">
              <mxPoint x="520" y="940" />
              <mxPoint x="520" y="1840" />
              <mxPoint x="1357" y="1840" />
            </Array>
          </mxGeometry>
        </mxCell>
        <mxCell id="7dWYydxdKpR4tuT_QlTn-341" value="variety&amp;nbsp; of services" style="text;html=1;align=center;verticalAlign=middle;whiteSpace=wrap;rounded=0;" parent="1" vertex="1">
          <mxGeometry x="848.25" y="1840" width="111.75" height="30" as="geometry" />
        </mxCell>
        <mxCell id="7dWYydxdKpR4tuT_QlTn-337" value="" style="endArrow=classic;html=1;rounded=0;exitX=0.75;exitY=1;exitDx=0;exitDy=0;entryX=0.75;entryY=0;entryDx=0;entryDy=0;" parent="1" source="7dWYydxdKpR4tuT_QlTn-334" target="7dWYydxdKpR4tuT_QlTn-320" edge="1">
          <mxGeometry width="50" height="50" relative="1" as="geometry">
            <mxPoint x="920" y="1690" as="sourcePoint" />
            <mxPoint x="860" y="1330" as="targetPoint" />
            <Array as="points">
              <mxPoint x="1380" y="1870" />
              <mxPoint x="480" y="1870" />
              <mxPoint x="480" y="921" />
            </Array>
          </mxGeometry>
        </mxCell>
        <mxCell id="7dWYydxdKpR4tuT_QlTn-342" value="Data" style="text;html=1;align=center;verticalAlign=middle;whiteSpace=wrap;rounded=0;" parent="1" vertex="1">
          <mxGeometry x="870" y="1870" width="60" height="30" as="geometry" />
        </mxCell>
        <mxCell id="7dWYydxdKpR4tuT_QlTn-381" value="" style="group" parent="1" vertex="1" connectable="0">
          <mxGeometry x="550" y="1070" width="306.86" height="163.93000000000006" as="geometry" />
        </mxCell>
        <mxCell id="7dWYydxdKpR4tuT_QlTn-370" value="" style="rounded=0;whiteSpace=wrap;html=1;container=1;" parent="7dWYydxdKpR4tuT_QlTn-381" vertex="1">
          <mxGeometry width="292.2672323178756" height="160" as="geometry" />
        </mxCell>
        <mxCell id="7dWYydxdKpR4tuT_QlTn-371" value="&lt;font color=&quot;#000000&quot;&gt;Provide Cloud infrastructure&lt;br&gt;&lt;/font&gt;" style="rounded=1;whiteSpace=wrap;html=1;fillColor=#f5f5f5;fontColor=#333333;strokeColor=#000000;container=0;" parent="7dWYydxdKpR4tuT_QlTn-370" vertex="1">
          <mxGeometry x="18.808059701492922" y="39.99999999999991" width="118.2089552238806" height="60" as="geometry" />
        </mxCell>
        <mxCell id="7dWYydxdKpR4tuT_QlTn-372" value="Data Provider" style="text;html=1;align=center;verticalAlign=middle;whiteSpace=wrap;rounded=0;container=0;" parent="7dWYydxdKpR4tuT_QlTn-381" vertex="1">
          <mxGeometry y="116.36363636363636" width="148.34776185831566" height="43.63636363636363" as="geometry" />
        </mxCell>
        <mxCell id="7dWYydxdKpR4tuT_QlTn-373" value="" style="endArrow=none;html=1;rounded=0;exitX=0.979;exitY=1;exitDx=0;exitDy=0;exitPerimeter=0;entryX=1;entryY=0.91;entryDx=0;entryDy=0;entryPerimeter=0;" parent="7dWYydxdKpR4tuT_QlTn-381" edge="1">
          <mxGeometry width="50" height="50" relative="1" as="geometry">
            <mxPoint x="262.60044762833684" y="160" as="sourcePoint" />
            <mxPoint x="292.27" y="138.1818181818182" as="targetPoint" />
          </mxGeometry>
        </mxCell>
        <mxCell id="7dWYydxdKpR4tuT_QlTn-382" value="&lt;font color=&quot;#000000&quot;&gt;Provide Cloud infrastructure&lt;br&gt;&lt;/font&gt;" style="rounded=1;whiteSpace=wrap;html=1;fillColor=#f5f5f5;fontColor=#333333;strokeColor=#000000;container=0;" parent="7dWYydxdKpR4tuT_QlTn-381" vertex="1">
          <mxGeometry x="159.998059701493" y="40" width="118.2089552238806" height="60" as="geometry" />
        </mxCell>
        <mxCell id="7dWYydxdKpR4tuT_QlTn-392" value="" style="group" parent="7dWYydxdKpR4tuT_QlTn-381" vertex="1" connectable="0">
          <mxGeometry x="283" y="61.07000000000002" width="15.56000000000006" height="37.860000000000014" as="geometry" />
        </mxCell>
        <mxCell id="7dWYydxdKpR4tuT_QlTn-388" value="" style="rounded=1;whiteSpace=wrap;html=1;arcSize=50;rotation=-90;container=0;" parent="7dWYydxdKpR4tuT_QlTn-392" vertex="1">
          <mxGeometry x="-11.149999999999977" y="11.150000000000006" width="37.86" height="15.56" as="geometry" />
        </mxCell>
        <mxCell id="7dWYydxdKpR4tuT_QlTn-389" value="" style="ellipse;whiteSpace=wrap;html=1;aspect=fixed;fillColor=#000000;container=0;" parent="7dWYydxdKpR4tuT_QlTn-392" vertex="1">
          <mxGeometry x="2.8700000000000045" y="3.610000000000042" width="10" height="10" as="geometry" />
        </mxCell>
        <mxCell id="7dWYydxdKpR4tuT_QlTn-390" value="" style="ellipse;whiteSpace=wrap;html=1;aspect=fixed;fillColor=#000000;container=0;" parent="7dWYydxdKpR4tuT_QlTn-392" vertex="1">
          <mxGeometry x="2.8700000000000045" y="23.610000000000042" width="10" height="10" as="geometry" />
        </mxCell>
        <mxCell id="7dWYydxdKpR4tuT_QlTn-405" value="" style="group;direction=south;" parent="7dWYydxdKpR4tuT_QlTn-381" vertex="1" connectable="0">
          <mxGeometry x="140" y="140" width="37.860000000000014" height="23.930000000000064" as="geometry" />
        </mxCell>
        <mxCell id="7dWYydxdKpR4tuT_QlTn-406" value="" style="rounded=1;whiteSpace=wrap;html=1;arcSize=50;rotation=-90;direction=south;" parent="7dWYydxdKpR4tuT_QlTn-405" vertex="1">
          <mxGeometry x="2.1316282072803006e-14" y="9.237055564881302e-14" width="15.56" height="37.86" as="geometry" />
        </mxCell>
        <mxCell id="7dWYydxdKpR4tuT_QlTn-407" value="" style="ellipse;whiteSpace=wrap;html=1;aspect=fixed;fillColor=#000000;direction=west;" parent="7dWYydxdKpR4tuT_QlTn-405" vertex="1">
          <mxGeometry x="-8" y="13.930000000000064" width="10" height="10" as="geometry" />
        </mxCell>
        <mxCell id="7dWYydxdKpR4tuT_QlTn-408" value="" style="ellipse;whiteSpace=wrap;html=1;aspect=fixed;fillColor=#000000;direction=west;" parent="7dWYydxdKpR4tuT_QlTn-381" vertex="1">
          <mxGeometry x="153.93000000000006" y="153.93000000000006" width="10" height="10" as="geometry" />
        </mxCell>
        <mxCell id="7dWYydxdKpR4tuT_QlTn-393" value="" style="endArrow=classic;html=1;rounded=0;exitX=1;exitY=0.5;exitDx=0;exitDy=0;entryX=0;entryY=0.5;entryDx=0;entryDy=0;" parent="1" source="7dWYydxdKpR4tuT_QlTn-389" target="7dWYydxdKpR4tuT_QlTn-117" edge="1">
          <mxGeometry width="50" height="50" relative="1" as="geometry">
            <mxPoint x="920" y="1210" as="sourcePoint" />
            <mxPoint x="1049" y="1337" as="targetPoint" />
            <Array as="points">
              <mxPoint x="950" y="1140" />
              <mxPoint x="950" y="1337" />
            </Array>
          </mxGeometry>
        </mxCell>
        <mxCell id="7dWYydxdKpR4tuT_QlTn-394" value="" style="endArrow=classic;html=1;rounded=0;exitX=0;exitY=0.5;exitDx=0;exitDy=0;entryX=1;entryY=0.5;entryDx=0;entryDy=0;" parent="1" source="7dWYydxdKpR4tuT_QlTn-118" target="7dWYydxdKpR4tuT_QlTn-390" edge="1">
          <mxGeometry width="50" height="50" relative="1" as="geometry">
            <mxPoint x="710" y="1320" as="sourcePoint" />
            <mxPoint x="760" y="1270" as="targetPoint" />
            <Array as="points">
              <mxPoint x="920" y="1356" />
              <mxPoint x="920" y="1160" />
            </Array>
          </mxGeometry>
        </mxCell>
        <mxCell id="7dWYydxdKpR4tuT_QlTn-395" value="money" style="text;html=1;align=center;verticalAlign=middle;whiteSpace=wrap;rounded=0;rotation=90;" parent="1" vertex="1">
          <mxGeometry x="882" y="1240" width="60" height="30" as="geometry" />
        </mxCell>
        <mxCell id="7dWYydxdKpR4tuT_QlTn-396" value="cloud infrastructure" style="text;html=1;align=center;verticalAlign=middle;whiteSpace=wrap;rounded=0;rotation=90;" parent="1" vertex="1">
          <mxGeometry x="882" y="1257" width="108.87" height="30" as="geometry" />
        </mxCell>
        <mxCell id="7dWYydxdKpR4tuT_QlTn-397" value="" style="rounded=0;whiteSpace=wrap;html=1;container=0;" parent="1" vertex="1">
          <mxGeometry x="559.9965671641794" y="1406.0700000000002" width="157.61194029850745" height="110" as="geometry" />
        </mxCell>
        <mxCell id="7dWYydxdKpR4tuT_QlTn-398" value="&lt;font color=&quot;#000000&quot;&gt;Provide electricity&lt;br&gt;&lt;/font&gt;" style="rounded=1;whiteSpace=wrap;html=1;fillColor=#f5f5f5;fontColor=#333333;strokeColor=#000000;container=0;" parent="1" vertex="1">
          <mxGeometry x="579.6980597014929" y="1426.0700000000002" width="118.2089552238806" height="60" as="geometry" />
        </mxCell>
        <mxCell id="7dWYydxdKpR4tuT_QlTn-399" value="Power supplier" style="text;html=1;align=center;verticalAlign=middle;whiteSpace=wrap;rounded=0;container=0;" parent="1" vertex="1">
          <mxGeometry x="560" y="1486.07" width="100" height="30" as="geometry" />
        </mxCell>
        <mxCell id="7dWYydxdKpR4tuT_QlTn-400" value="" style="endArrow=none;html=1;rounded=0;exitX=0.979;exitY=1;exitDx=0;exitDy=0;exitPerimeter=0;entryX=1;entryY=0.91;entryDx=0;entryDy=0;entryPerimeter=0;" parent="1" edge="1">
          <mxGeometry width="50" height="50" relative="1" as="geometry">
            <mxPoint x="701.6100000000004" y="1516.0700000000002" as="sourcePoint" />
            <mxPoint x="717.6100000000006" y="1501.0700000000002" as="targetPoint" />
          </mxGeometry>
        </mxCell>
        <mxCell id="7dWYydxdKpR4tuT_QlTn-402" value="" style="rounded=1;whiteSpace=wrap;html=1;arcSize=50;rotation=-90;direction=south;" parent="1" vertex="1">
          <mxGeometry x="637.9999999999999" y="1390" width="15.56" height="37.86" as="geometry" />
        </mxCell>
        <mxCell id="7dWYydxdKpR4tuT_QlTn-403" value="" style="ellipse;whiteSpace=wrap;html=1;aspect=fixed;fillColor=#000000;direction=west;" parent="1" vertex="1">
          <mxGeometry x="629.9999999999999" y="1403.9299999999998" width="10" height="10" as="geometry" />
        </mxCell>
        <mxCell id="7dWYydxdKpR4tuT_QlTn-404" value="" style="ellipse;whiteSpace=wrap;html=1;aspect=fixed;fillColor=#000000;direction=west;" parent="1" vertex="1">
          <mxGeometry x="651.9299999999998" y="1403.9299999999998" width="10" height="10" as="geometry" />
        </mxCell>
        <mxCell id="7dWYydxdKpR4tuT_QlTn-409" value="" style="endArrow=classic;html=1;rounded=0;exitX=0.25;exitY=0;exitDx=0;exitDy=0;entryX=0.5;entryY=0;entryDx=0;entryDy=0;" parent="1" source="7dWYydxdKpR4tuT_QlTn-402" target="7dWYydxdKpR4tuT_QlTn-407" edge="1">
          <mxGeometry width="50" height="50" relative="1" as="geometry">
            <mxPoint x="630" y="1360" as="sourcePoint" />
            <mxPoint x="680" y="1310" as="targetPoint" />
            <Array as="points">
              <mxPoint x="636" y="1300" />
              <mxPoint x="687" y="1300" />
            </Array>
          </mxGeometry>
        </mxCell>
        <mxCell id="7dWYydxdKpR4tuT_QlTn-410" value="" style="endArrow=classic;html=1;rounded=0;exitX=0.5;exitY=0;exitDx=0;exitDy=0;entryX=0.5;entryY=1;entryDx=0;entryDy=0;" parent="1" source="7dWYydxdKpR4tuT_QlTn-408" target="7dWYydxdKpR4tuT_QlTn-404" edge="1">
          <mxGeometry width="50" height="50" relative="1" as="geometry">
            <mxPoint x="680" y="1290" as="sourcePoint" />
            <mxPoint x="630" y="1340" as="targetPoint" />
            <Array as="points">
              <mxPoint x="710" y="1320" />
              <mxPoint x="657" y="1320" />
            </Array>
          </mxGeometry>
        </mxCell>
        <mxCell id="7dWYydxdKpR4tuT_QlTn-420" value="" style="endArrow=classic;html=1;rounded=0;entryX=0.5;entryY=0;entryDx=0;entryDy=0;exitX=1;exitY=0.5;exitDx=0;exitDy=0;" parent="1" source="7dWYydxdKpR4tuT_QlTn-103" target="7dWYydxdKpR4tuT_QlTn-418" edge="1">
          <mxGeometry width="50" height="50" relative="1" as="geometry">
            <mxPoint x="1560" y="1697" as="sourcePoint" />
            <mxPoint x="1680" y="1570" as="targetPoint" />
            <Array as="points">
              <mxPoint x="1960" y="1697" />
            </Array>
          </mxGeometry>
        </mxCell>
        <mxCell id="7dWYydxdKpR4tuT_QlTn-421" value="" style="endArrow=classic;html=1;rounded=0;exitX=0.5;exitY=0;exitDx=0;exitDy=0;entryX=1;entryY=0.5;entryDx=0;entryDy=0;" parent="1" source="7dWYydxdKpR4tuT_QlTn-419" target="7dWYydxdKpR4tuT_QlTn-104" edge="1">
          <mxGeometry width="50" height="50" relative="1" as="geometry">
            <mxPoint x="1670" y="1610" as="sourcePoint" />
            <mxPoint x="1620" y="1660" as="targetPoint" />
            <Array as="points">
              <mxPoint x="1985" y="1717" />
            </Array>
          </mxGeometry>
        </mxCell>
        <mxCell id="7dWYydxdKpR4tuT_QlTn-422" value="money" style="text;html=1;align=center;verticalAlign=middle;whiteSpace=wrap;rounded=0;" parent="1" vertex="1">
          <mxGeometry x="1780" y="1660" width="60" height="30" as="geometry" />
        </mxCell>
        <mxCell id="7dWYydxdKpR4tuT_QlTn-423" value="service" style="text;html=1;align=center;verticalAlign=middle;whiteSpace=wrap;rounded=0;" parent="1" vertex="1">
          <mxGeometry x="1780" y="1691.97" width="60" height="30" as="geometry" />
        </mxCell>
        <mxCell id="7dWYydxdKpR4tuT_QlTn-252" value="Government" style="text;html=1;align=center;verticalAlign=middle;whiteSpace=wrap;rounded=0;container=0;" parent="1" vertex="1">
          <mxGeometry x="1770" y="1220.0018181818182" width="157.08333333333331" height="21.818181818181817" as="geometry" />
        </mxCell>
        <mxCell id="9ywdbIWpezrS7CgmG4CW-14" value="" style="rounded=1;whiteSpace=wrap;html=1;arcSize=50;rotation=-90;direction=south;" vertex="1" parent="1">
          <mxGeometry x="1046.0699999999997" y="870.0000000000001" width="15.56" height="37.86" as="geometry" />
        </mxCell>
        <mxCell id="9ywdbIWpezrS7CgmG4CW-15" value="" style="ellipse;whiteSpace=wrap;html=1;aspect=fixed;fillColor=#000000;direction=west;" vertex="1" parent="1">
          <mxGeometry x="1038.0699999999997" y="883.93" width="10" height="10" as="geometry" />
        </mxCell>
        <mxCell id="9ywdbIWpezrS7CgmG4CW-16" value="" style="ellipse;whiteSpace=wrap;html=1;aspect=fixed;fillColor=#000000;direction=west;" vertex="1" parent="1">
          <mxGeometry x="1060" y="883.93" width="10" height="10" as="geometry" />
        </mxCell>
        <mxCell id="9ywdbIWpezrS7CgmG4CW-17" value="" style="endArrow=classic;html=1;rounded=0;exitX=0.175;exitY=-0.027;exitDx=0;exitDy=0;exitPerimeter=0;entryX=0.5;entryY=1;entryDx=0;entryDy=0;" edge="1" parent="1" source="7dWYydxdKpR4tuT_QlTn-251" target="9ywdbIWpezrS7CgmG4CW-16">
          <mxGeometry width="50" height="50" relative="1" as="geometry">
            <mxPoint x="1520" y="1290" as="sourcePoint" />
            <mxPoint x="1570" y="1240" as="targetPoint" />
            <Array as="points">
              <mxPoint x="1936" y="840" />
              <mxPoint x="1065" y="840" />
            </Array>
          </mxGeometry>
        </mxCell>
        <mxCell id="9ywdbIWpezrS7CgmG4CW-18" value="" style="endArrow=classic;html=1;rounded=0;exitX=0.5;exitY=1;exitDx=0;exitDy=0;entryX=0.5;entryY=1;entryDx=0;entryDy=0;" edge="1" parent="1" source="9ywdbIWpezrS7CgmG4CW-15" target="7dWYydxdKpR4tuT_QlTn-362">
          <mxGeometry width="50" height="50" relative="1" as="geometry">
            <mxPoint x="1570" y="1110" as="sourcePoint" />
            <mxPoint x="1520" y="1160" as="targetPoint" />
            <Array as="points">
              <mxPoint x="1043" y="820" />
              <mxPoint x="1955" y="820" />
            </Array>
          </mxGeometry>
        </mxCell>
        <mxCell id="9ywdbIWpezrS7CgmG4CW-19" value="Taxes+fines payments" style="text;html=1;align=center;verticalAlign=middle;whiteSpace=wrap;rounded=0;" vertex="1" parent="1">
          <mxGeometry x="1490" y="783.9300000000001" width="95.5" height="30" as="geometry" />
        </mxCell>
        <mxCell id="9ywdbIWpezrS7CgmG4CW-20" value="work permission and sanctions" style="text;html=1;align=center;verticalAlign=middle;whiteSpace=wrap;rounded=0;" vertex="1" parent="1">
          <mxGeometry x="1470.9999999999998" y="840" width="133.5" height="30" as="geometry" />
        </mxCell>
      </root>
    </mxGraphModel>
  </diagram>
</mxfile>
